# xmcd
#
# Track frame offsets:
#	182
#	12500
#	26390
#	33680
#	45467
#	56810
#	65195
#	78052
#	88317
#	103300
#	117280
#	131457
#	147065
#	159930
#	172060
#	182372
#	197637
#	209880
#	239342
#	258697
#
# Disc length: 3668
#
# Revision: 2
# Processed by: cddbd v1.5.1PL0 Copyright (c) Steve Scherf et al.
# Submitted via: ExactAudioCopy v0.90a11
# Normalized: r0:DSETVAR1,TDELIM( - ),TSWAP
#
DISCID=240e5214
DTITLE=Various Artist - From Where I Stand - CD 02
DYEAR=1900
DGENRE=
TTITLE0=Wynonie Harris - Bloodshot Eyes
TTITLE1=The Orioles - Crying In The Chappel
TTITLE2=Big Al Downing - Down On The Farm
TTITLE3=City Lights - Ivory Joe Hunter
TTITLE4=Ray Charles - I'm Movin' On
TTITLE5=Night Train To Memphis - Bobby Hebb
TTITLE6=Solomon Burke - Just Out Of Reach
TTITLE7=Fats Domino - You Win Again
TTITLE8=Esther Phillips - Release Me
TTITLE9=Funny How Time Slips Away - Joe Hinton
TTITLE10=Detroit City - Arthur Alexander
TTITLE11=The Supremes - It Makes No Difference Now
TTITLE12=A Satisfied Mind - Bobby Hebb
TTITLE13=Will The Circle Be Unbroken - The Staple Singers
TTITLE14=Half A Mind - Joe Tex
TTITLE15=Etta James - Almost Persuaded
TTITLE16=Joe Simon - The Chokin' Kind
TTITLE17=Al Green - For The Good Times
TTITLE18=Ivory Joe Hunter - He'll Never Love You
TTITLE19=Dorothy Moore - Misty Blue
EXTD=
EXTT0=
EXTT1=
EXTT2=
EXTT3=
EXTT4=
EXTT5=
EXTT6=
EXTT7=
EXTT8=
EXTT9=
EXTT10=
EXTT11=
EXTT12=
EXTT13=
EXTT14=
EXTT15=
EXTT16=
EXTT17=
EXTT18=
EXTT19=
PLAYORDER=
